<svg xmlns="http://www.w3.org/2000/svg" xmlns:xlink="http://www.w3.org/1999/xlink" viewBox="0,0,256,256" width="96px" height="96px" fill-rule="nonzero"><g fill-opacity="0" fill="#dddddd" fill-rule="nonzero" stroke="none" stroke-width="1" stroke-linecap="butt" stroke-linejoin="miter" stroke-miterlimit="10" stroke-dasharray="" stroke-dashoffset="0" font-family="none" font-weight="none" font-size="none" text-anchor="none" style="mix-blend-mode: normal"><path d="M0,256v-256h256v256z" id="bgRectangle"></path></g><g fill="#ff5252" fill-rule="nonzero" stroke="none" stroke-width="1" stroke-linecap="butt" stroke-linejoin="miter" stroke-miterlimit="10" stroke-dasharray="" stroke-dashoffset="0" font-family="none" font-weight="none" font-size="none" text-anchor="none" style="mix-blend-mode: normal"><g transform="scale(5.33333,5.33333)"><path d="M42.459,32.519c-1.037,-3.336 -9.539,-19.596 -12.12,-24.5l-0.026,-0.048c-1.16,-2.412 -3.637,-3.971 -6.313,-3.971c-2.676,0 -5.153,1.559 -6.291,3.929l-0.048,0.091c-2.581,4.903 -11.083,21.163 -12.119,24.498c-0.281,0.903 -0.542,1.889 -0.542,2.982c0,4.687 3.813,8.5 8.5,8.5c4.654,0 7.612,-1.949 10.5,-5.184c2.888,3.235 5.846,5.184 10.5,5.184c4.687,0 8.5,-3.813 8.5,-8.5c0,-1.093 -0.261,-2.079 -0.541,-2.981zM23.999,34.662c-1.669,-2.147 -3.999,-5.781 -3.999,-8.662c0,-2.206 1.794,-4 4,-4c2.206,0 4,1.794 4,4c0,2.872 -2.332,6.511 -4.001,8.662zM34.5,41c-3.287,0 -5.521,-1.107 -8.325,-4.258c1.703,-2.146 4.825,-6.638 4.825,-10.742c0,-3.86 -3.141,-7 -7,-7c-3.859,0 -7,3.14 -7,7c0,4.104 3.122,8.596 4.825,10.742c-2.804,3.151 -5.038,4.258 -8.325,4.258c-3.032,0 -5.5,-2.467 -5.5,-5.5c0,-0.653 0.162,-1.308 0.406,-2.09c0.764,-2.46 6.894,-14.462 11.91,-23.993l0.076,-0.146c0.663,-1.38 2.079,-2.271 3.608,-2.271c1.529,0 2.945,0.891 3.615,2.285l0.068,0.132c5.017,9.531 11.147,21.533 11.912,23.994c0.243,0.781 0.405,1.436 0.405,2.089c0,3.033 -2.468,5.5 -5.5,5.5z"></path></g></g></svg>